<svg xmlns="http://www.w3.org/2000/svg" viewBox="0 0 512 512"><defs><style>.a{fill:#fff;}.b{fill:#00b900;}</style></defs><title>LINE-Logo</title><path class="a" d="M505,220.81C505,109.39,393.3,18.75,256,18.75S7,109.39,7,220.81C7,320.7,95.58,404.36,215.24,420.17c8.11,1.75,19.15,5.35,21.94,12.28,2.51,6.29,1.64,16.16.8,22.52,0,0-2.92,17.57-3.55,21.31-1.08,6.29-5,24.62,21.57,13.42s143.4-84.43,195.64-144.56h0C487.71,305.57,505,265.41,505,220.81"/><path class="b" d="M205.41,167H187.94a4.85,4.85,0,0,0-4.85,4.84v108.5a4.85,4.85,0,0,0,4.85,4.84h17.47a4.85,4.85,0,0,0,4.85-4.84V171.81a4.85,4.85,0,0,0-4.85-4.84"/><path class="b" d="M325.62,167H308.16a4.85,4.85,0,0,0-4.85,4.84v64.46l-49.72-67.14c-.12-.18-.25-.34-.38-.5l0,0-.29-.3-.09-.08a2.65,2.65,0,0,0-.26-.21l-.13-.1-.25-.18-.14-.08-.26-.15-.16-.07-.28-.12-.15-.05-.29-.1-.17,0-.28-.07-.2,0a1.09,1.09,0,0,0-.26,0l-.25,0H232.09a4.85,4.85,0,0,0-4.85,4.84v108.5a4.85,4.85,0,0,0,4.85,4.84h17.46a4.85,4.85,0,0,0,4.86-4.84V215.87l49.78,67.24a4.63,4.63,0,0,0,1.23,1.19l.05,0a3,3,0,0,0,.3.18l.13.07.24.12.23.1.15.05.33.11h.07a4.58,4.58,0,0,0,1.24.17h17.46a4.85,4.85,0,0,0,4.85-4.84V171.81a4.85,4.85,0,0,0-4.85-4.84"/><path class="b" d="M163.31,258H115.85V171.82A4.85,4.85,0,0,0,111,167H93.53a4.85,4.85,0,0,0-4.85,4.85V280.3h0A4.81,4.81,0,0,0,90,283.66l.07.07.07.07a4.8,4.8,0,0,0,3.35,1.35h69.78a4.85,4.85,0,0,0,4.84-4.85V262.83a4.85,4.85,0,0,0-4.84-4.85"/><path class="b" d="M422.08,194.14a4.85,4.85,0,0,0,4.84-4.85V171.83a4.85,4.85,0,0,0-4.84-4.86H352.3a4.82,4.82,0,0,0-3.37,1.37s0,0-.05,0l-.08.09a4.82,4.82,0,0,0-1.35,3.34h0V280.3h0a4.81,4.81,0,0,0,1.36,3.35l.07.07.07.07a4.85,4.85,0,0,0,3.35,1.35h69.78a4.85,4.85,0,0,0,4.84-4.85V262.83a4.85,4.85,0,0,0-4.84-4.85H374.62V239.64h47.46a4.85,4.85,0,0,0,4.84-4.85V217.33a4.85,4.85,0,0,0-4.84-4.85H374.62V194.14Z"/></svg>