<svg xmlns="http://www.w3.org/2000/svg" viewBox="0 0 1920 1080"><defs><style>.cls-1{fill:#fff;}.cls-2{fill:#ebba16;}.cls-3{fill:#c4c4c4;}.cls-4{fill:#f0efef;}.cls-5{fill:none;}</style></defs><g id="Layer_2" data-name="Layer 2"><rect class="cls-1" width="1920" height="1080"/></g><g id="Layer_1" data-name="Layer 1"><path class="cls-2" d="M1153.16,370.93c-89.18-7.57-190.68-60-259.14-2.4C813.74,436.11,863.63,596.62,772.12,648c-92.6,52-209.44-77.44-306.21-33.68-59,26.69-74.71,105.31-61.74,168.78S450.26,905,459.06,969.19c12.67,92.41-31,190.29-108.2,242.61s-184.3,56.58-265.43,10.55c-79.07-44.86-128.58-130.24-150.38-218.5S-84.27,823.38-81.66,732.5q7.59-264.36,15.19-528.73c3.55-123.52,12.6-260.28,100.92-346.7C120-226.61,251.62-235.27,371.21-239c187.35-5.9,374.69-12.51,562.05-17.68,132.23-3.65,293.71-6.78,400,88.57C1509.62-9.88,1426.82,394.17,1153.16,370.93Z"/><path class="cls-3" d="M2016.44,702.63c-55.93-56-145.52-75.49-219.65-47.68-107,40.14-183,167.21-296.82,157-76.45-6.88-145.3-77.88-219-56.53-50.21,14.55-79.8,69.66-81.58,121.91s18.17,102.5,37.77,151l64.32,159c16.52,40.85,33.42,82.36,61.06,116.67,47,58.36,121,89.93,195.18,100.33,131,18.36,269.47-26,365.48-117C2045.48,1171.35,2154.47,840.94,2016.44,702.63Z"/><path class="cls-4" d="M1760.65,397.09c-53.13-14.53-117.24-7-155.41-46.76-24.77-25.77-30.24-63.94-34.48-99.42q-17.22-143.85-34.43-287.7c-4.88-40.82-9.27-84.57,9.9-120.94,29-54.94,104.42-71.87,163-51.31s102.66,69.33,138.41,120.11c107,152,162.4,339.67,155,525.43-2.45,61.6-33.45,221.37-108.54,147.47-18.12-17.84-15.4-92.84-38.18-122.6A182.1,182.1,0,0,0,1760.65,397.09Z"/><path d="M-.48,84.43A58.45,58.45,0,0,1,1.78,68.36l3.31.94C.7,84.75,3,100.25,11.83,115.44,25.92,139.58,55.88,160.19,88.15,168c16,3.85,32.89,6.06,49.22,8.19,32.2,4.2,65.51,8.55,93.49,25.77,37,22.75,61.83,65.33,75.95,130.15,2.82,12.94,5.24,26.25,7.58,39.11,6.7,36.86,13.62,75,30.72,108.6,22.32,43.87,71,82.54,120.93,71.56,63.09-13.88,87.17-92.81,83.1-164.63-.64-11.23-1.6-22.89-2.53-34.17-4.79-58.11-9.74-118.22,22.94-165.2,47-67.55,143.86-67.79,197.44-61.91,16.56,1.81,33.49,4.31,49.87,6.73,54.35,8,110.55,16.32,163.3,1.14,62-17.84,113.39-69.52,130.89-131.63s.62-133-43-180.6l2.54-2.33C1115-132.81,1132.17-60.61,1114.37,2.6s-70.12,115.85-133.26,134c-53.46,15.39-110,7-164.76-1.05-16.34-2.42-33.24-4.91-49.73-6.72-52.82-5.78-148.29-5.63-194.24,60.45-32,46-27.06,105.43-22.33,163,.93,11.31,1.89,23,2.53,34.26,4.17,73.59-20.73,153.89-85.8,168.2C415.16,566.06,365,526.4,342,481.35,324.71,447.27,317.74,408.9,311,371.8c-2.33-12.84-4.74-26.12-7.55-39-13.91-63.85-38.24-105.7-74.38-128-27.36-16.83-60.29-21.12-92.14-25.28-16.42-2.14-33.4-4.36-49.58-8.26-33.14-8-63.95-29.22-78.49-54.13C2.66,106.56-.48,95.46-.48,84.43Z"/><path d="M976.33,1321.83c2.75-81.14,5.87-173.1,43.43-252,33.74-70.91,111.69-142.85,203.1-133.28,45.09,4.73,85.21,28.39,124,51.26,36,21.25,73.31,43.22,114.42,49.94,71.08,11.61,141.57-23.64,201.14-59.67,6.24-3.76,12.48-7.59,18.74-11.42,55.4-33.91,112.68-69,177.36-75.23,43-4.15,89.5,10.12,121.42,37.23,24,20.36,37.64,46,39.5,74l-3.44.23c-1.8-27.11-15-51.89-38.3-71.63-31.22-26.53-76.76-40.48-118.85-36.42C1795,901,1738,935.87,1683,969.58c-6.27,3.83-12.52,7.66-18.75,11.43-60.12,36.35-131.3,71.92-203.49,60.13-41.75-6.83-79.3-29-115.61-50.38-38.48-22.68-78.28-46.15-122.62-50.79-89.74-9.41-166.39,61.48-199.62,131.32-37.26,78.28-40.36,169.86-43.1,250.66Z"/><rect class="cls-5" x="588.44" y="-199.39" width="1117.64" height="1614.37" transform="translate(1755.06 -539.47) rotate(90)"/></g></svg>