<?xml version="1.0" encoding="utf-8"?>
<!-- Generator: Adobe Illustrator 23.0.1, SVG Export Plug-In . SVG Version: 6.00 Build 0)  -->
<svg version="1.1" id="Layer_1" xmlns="http://www.w3.org/2000/svg" xmlns:xlink="http://www.w3.org/1999/xlink" x="0px" y="0px"
	 viewBox="0 0 1920 1080" style="enable-background:new 0 0 1920 1080;" xml:space="preserve">
<style type="text/css">
	.st0{display:none;}
	.st1{display:inline;fill:#FFFFFF;}
	.st2{fill:#00CEC9;}
	.st3{fill:#A29BFE;}
	.st4{fill:#FAB1A0;}
	.st5{fill:#FFFFFF;}
	.st6{fill:none;}
</style>
<g id="Layer_2_1_" class="st0">
	<rect x="77.5" y="70.4" class="st1" width="1920" height="1080"/>
</g>
<g id="Layer_1_1_">
	<path class="st2" d="M844.3,779.5c89.2,7.6,190.7,60,259.1,2.4c80.3-67.6,30.4-228.1,121.9-279.5c92.6-52,209.4,77.4,306.2,33.7
		c59-26.7,74.7-105.3,61.7-168.8s-46.1-121.9-54.9-186.1c-12.7-92.4,31-190.3,108.2-242.6S1830.8-118,1911.9-72
		c79.1,44.9,128.6,130.2,150.4,218.5c21.8,88.3,19.3,180.5,16.7,271.4c-5.1,176.2-10.1,352.5-15.2,528.7
		c-3.6,123.5-12.6,260.3-100.9,346.7c-85.5,83.7-217.2,92.3-336.8,96.1c-187.4,5.9-374.7,12.5-562.1,17.7
		c-132.2,3.7-293.7,6.8-400-88.6C487.8,1160.3,570.6,756.2,844.3,779.5z"/>
	<path class="st3" d="M-19,447.8c55.9,56,145.5,75.5,219.7,47.7c107-40.1,183-167.2,296.8-157c76.4,6.9,145.3,77.9,219,56.5
		c50.2-14.5,79.8-69.7,81.6-121.9s-18.2-102.5-37.8-151L696-36.9c-16.5-40.8-33.4-82.4-61.1-116.7c-47-58.4-121-89.9-195.2-100.3
		c-131-18.4-269.5,26-365.5,117C-48-21-157,309.4-19,447.8z"/>
	<path class="st4" d="M236.8,753.3c53.1,14.5,117.2,7,155.4,46.8c24.8,25.8,30.2,63.9,34.5,99.4c11.5,95.9,23,191.8,34.4,287.7
		c4.9,40.8,9.3,84.6-9.9,120.9c-29,54.9-104.4,71.9-163,51.3s-102.7-69.3-138.4-120.1c-107-152-162.4-339.7-155-525.4
		c2.4-61.6,33.4-221.4,108.5-147.5c18.1,17.8,15.4,92.8,38.2,122.6C165.5,720.2,198.9,742.7,236.8,753.3z"/>
	<path class="st5" d="M1997.9,1066c0,5.4-0.8,10.8-2.3,16.1l-3.3-0.9c4.4-15.5,2.1-31-6.7-46.1c-14.1-24.1-44-44.8-76.3-52.6
		c-16-3.9-32.9-6.1-49.2-8.2c-32.2-4.2-65.5-8.5-93.5-25.8c-37-22.8-61.8-65.3-76-130.1c-2.8-12.9-5.2-26.3-7.6-39.1
		c-6.7-36.9-13.6-75-30.7-108.6c-22.3-43.9-71-82.5-120.9-71.6c-63.1,13.9-87.2,92.8-83.1,164.6c0.6,11.2,1.6,22.9,2.5,34.2
		c4.8,58.1,9.7,118.2-22.9,165.2c-47,67.5-143.9,67.8-197.4,61.9c-16.6-1.8-33.5-4.3-49.9-6.7c-54.3-8-110.5-16.3-163.3-1.1
		c-62,17.8-113.4,69.5-130.9,131.6s-0.6,133,43,180.6l-2.5,2.3c-44.4-48.4-61.6-120.6-43.8-183.8c17.8-63.2,70.1-115.8,133.3-134
		c53.5-15.4,110-7,164.8,1.1c16.3,2.4,33.2,4.9,49.7,6.7c52.8,5.8,148.3,5.6,194.2-60.5c32-46,27.1-105.4,22.3-163
		c-0.9-11.3-1.9-23-2.5-34.3c-4.2-73.6,20.7-153.9,85.8-168.2c51.6-11.3,101.8,28.3,124.8,73.4c17.3,34.1,24.3,72.5,31,109.6
		c2.3,12.8,4.7,26.1,7.5,39c13.9,63.8,38.2,105.7,74.4,128c27.4,16.8,60.3,21.1,92.1,25.3c16.4,2.1,33.4,4.4,49.6,8.3
		c33.1,8,63.9,29.2,78.5,54.1C1994.8,1043.8,1997.9,1054.9,1997.9,1066z"/>
	<path class="st5" d="M1021.1-171.4c-2.8,81.1-5.9,173.1-43.4,252C944,151.5,866,223.4,774.6,213.8c-45.1-4.7-85.2-28.4-124-51.3
		c-36-21.3-73.3-43.2-114.4-49.9C465.1,101,394.6,136.3,335,172.3c-6.2,3.8-12.5,7.6-18.7,11.4c-55.4,33.9-112.7,69-177.4,75.2
		c-43,4.2-89.5-10.1-121.4-37.2c-24-20.4-37.6-46-39.5-74l3.4-0.2c1.8,27.1,15,51.9,38.3,71.6c31.2,26.5,76.8,40.5,118.8,36.4
		c63.9-6.2,120.9-41,175.9-74.7c6.3-3.8,12.5-7.7,18.8-11.4c60.1-36.3,131.3-71.9,203.5-60.1c41.8,6.8,79.3,29,115.6,50.4
		c38.5,22.7,78.3,46.2,122.6,50.8c89.7,9.4,166.4-61.5,199.6-131.3c37.3-78.3,40.4-169.9,43.1-250.7L1021.1-171.4z"/>
	<rect x="43" y="-16.2" class="st6" width="1614.4" height="1117.6"/>
</g>
</svg>
